# xmcd CD database file
#
# Track frame offsets:
#	150
#	26774
#	46805
#	60107
#	91821
#
# Disc length: 1591 seconds
#
# Revision: 0
# Processed by: cddbd v1.5.1PL0 Copyright (c) Steve Scherf et al.
# Submitted via: CDex 1.51
#
DISCID=2e063505
DTITLE=Magic Music - life
DYEAR=2004
DGENRE=Jazz
TTITLE0=All for me
TTITLE1=Stranger on the shore
TTITLE2=Wild Cat blues
TTITLE3=You are the sunshine of my life
TTITLE4=Take Five
EXTD=YEAR: 2004
EXTT0=
EXTT1=
EXTT2=
EXTT3=
EXTT4=
PLAYORDER=
